<mxfile host="app.diagrams.net" modified="2022-06-01T03:35:58.341Z" agent="5.0 (Windows NT 10.0; Win64; x64) AppleWebKit/537.36 (KHTML, like Gecko) Chrome/102.0.5005.61 Safari/537.36" etag="lmDKcr0qnbSH9-ZmpsW3" version="17.4.6" type="github">
  <diagram id="jOqtSxM-8zZIy-7nrG3q" name="Page-1">
    <mxGraphModel dx="868" dy="450" grid="1" gridSize="10" guides="1" tooltips="1" connect="1" arrows="1" fold="1" page="1" pageScale="1" pageWidth="850" pageHeight="1100" math="0" shadow="0">
      <root>
        <mxCell id="0" />
        <mxCell id="1" parent="0" />
        <mxCell id="qWQnZkXp50kozFIKqKcd-3" style="edgeStyle=orthogonalEdgeStyle;rounded=0;orthogonalLoop=1;jettySize=auto;html=1;exitX=0.5;exitY=1;exitDx=0;exitDy=0;entryX=0.5;entryY=0;entryDx=0;entryDy=0;fontFamily=Times New Roman;fontSize=17;" edge="1" parent="1" source="qWQnZkXp50kozFIKqKcd-1" target="qWQnZkXp50kozFIKqKcd-2">
          <mxGeometry relative="1" as="geometry" />
        </mxCell>
        <mxCell id="qWQnZkXp50kozFIKqKcd-1" value="&lt;font style=&quot;font-size: 20px&quot;&gt;START&lt;/font&gt;" style="rounded=1;whiteSpace=wrap;html=1;fontFamily=Times New Roman;" vertex="1" parent="1">
          <mxGeometry x="360" y="30" width="125" height="60" as="geometry" />
        </mxCell>
        <mxCell id="qWQnZkXp50kozFIKqKcd-6" style="edgeStyle=orthogonalEdgeStyle;rounded=0;orthogonalLoop=1;jettySize=auto;html=1;exitX=0.5;exitY=1;exitDx=0;exitDy=0;entryX=0.47;entryY=0;entryDx=0;entryDy=0;entryPerimeter=0;fontFamily=Times New Roman;fontSize=17;" edge="1" parent="1" source="qWQnZkXp50kozFIKqKcd-2" target="qWQnZkXp50kozFIKqKcd-4">
          <mxGeometry relative="1" as="geometry" />
        </mxCell>
        <mxCell id="qWQnZkXp50kozFIKqKcd-2" value="&lt;font style=&quot;font-size: 17px&quot;&gt;If helmet is detected&lt;/font&gt;" style="rhombus;whiteSpace=wrap;html=1;fontFamily=Times New Roman;fontSize=20;" vertex="1" parent="1">
          <mxGeometry x="367.25" y="130" width="110.5" height="110" as="geometry" />
        </mxCell>
        <mxCell id="qWQnZkXp50kozFIKqKcd-9" style="edgeStyle=orthogonalEdgeStyle;rounded=0;orthogonalLoop=1;jettySize=auto;html=1;exitX=0.5;exitY=1;exitDx=0;exitDy=0;entryX=0.5;entryY=0;entryDx=0;entryDy=0;fontFamily=Times New Roman;fontSize=17;" edge="1" parent="1" source="qWQnZkXp50kozFIKqKcd-4" target="qWQnZkXp50kozFIKqKcd-7">
          <mxGeometry relative="1" as="geometry" />
        </mxCell>
        <mxCell id="qWQnZkXp50kozFIKqKcd-4" value="Detect the rider&#39;s breath" style="rounded=1;whiteSpace=wrap;html=1;fontFamily=Times New Roman;fontSize=17;" vertex="1" parent="1">
          <mxGeometry x="330" y="270" width="200" height="60" as="geometry" />
        </mxCell>
        <mxCell id="qWQnZkXp50kozFIKqKcd-7" value="&lt;font style=&quot;font-size: 17px&quot;&gt;If alcohol consumed&lt;/font&gt;" style="rhombus;whiteSpace=wrap;html=1;fontFamily=Times New Roman;fontSize=20;" vertex="1" parent="1">
          <mxGeometry x="367.25" y="360" width="110.5" height="110" as="geometry" />
        </mxCell>
      </root>
    </mxGraphModel>
  </diagram>
</mxfile>
